<?xml version="1.0" encoding="iso-8859-1"?>
<!-- Generator: Adobe Illustrator 19.0.0, SVG Export Plug-In . SVG Version: 6.00 Build 0)  -->
<svg version="1.1" id="Capa_1" xmlns="http://www.w3.org/2000/svg" xmlns:xlink="http://www.w3.org/1999/xlink" x="0px" y="0px"
	 viewBox="0 0 480 480" style="enable-background:new 0 0 480 480;" xml:space="preserve">
<g>
	<g>
		<path d="M304,0H176c-48.523,0-88,39.477-88,88v304c0,48.523,39.477,88,88,88h128c48.523,0,88-39.477,88-88V88
			C392,39.477,352.523,0,304,0z M376,392c0,39.703-32.301,72-72,72H176c-39.699,0-72-32.297-72-72V112h272V392z M376,96H104v-8
			c0-39.703,32.301-72,72-72h128c39.699,0,72,32.297,72,72V96z"/>
	</g>
</g>
<g>
	<g>
		<path d="M342.398,67.195C325.863,45.156,299.547,32,272,32h-64c-27.547,0-53.863,13.156-70.398,35.195
			c-1.82,2.43-2.113,5.672-0.758,8.383S140.969,80,144,80h192c3.031,0,5.801-1.711,7.156-4.422S344.219,69.625,342.398,67.195z
			 M162.785,64c12.688-10.203,28.68-16,45.215-16h64c16.535,0,32.527,5.797,45.215,16H162.785z"/>
	</g>
</g>
<g>
	<g>
		<path d="M312,128H168c-17.645,0-32,14.352-32,32v32c0,17.648,14.355,32,32,32h144c17.645,0,32-14.352,32-32v-32
			C344,142.352,329.645,128,312,128z M328,192c0,8.82-7.176,16-16,16H168c-8.824,0-16-7.18-16-16v-32c0-8.82,7.176-16,16-16h144
			c8.824,0,16,7.18,16,16V192z"/>
	</g>
</g>
<g>
	<g>
		<path d="M312,240H168c-17.645,0-32,14.352-32,32v32c0,17.648,14.355,32,32,32h144c17.645,0,32-14.352,32-32v-32
			C344,254.352,329.645,240,312,240z M328,304c0,8.82-7.176,16-16,16H168c-8.824,0-16-7.18-16-16v-32c0-8.82,7.176-16,16-16h144
			c8.824,0,16,7.18,16,16V304z"/>
	</g>
</g>
<g>
	<g>
		<path d="M288,360h-96c-17.645,0-32,14.352-32,32v16c0,17.648,14.355,32,32,32h96c17.645,0,32-14.352,32-32v-16
			C320,374.352,305.645,360,288,360z M304,408c0,8.82-7.176,16-16,16h-96c-8.824,0-16-7.18-16-16v-16c0-8.82,7.176-16,16-16h96
			c8.824,0,16,7.18,16,16V408z"/>
	</g>
</g>
<g>
	<g>
		<rect x="232" y="168" width="16" height="16"/>
	</g>
</g>
<g>
	<g>
		<rect x="232" y="280" width="16" height="16"/>
	</g>
</g>
<g>
	<g>
		<rect x="232" y="392" width="16" height="16"/>
	</g>
</g>
<g>
</g>
<g>
</g>
<g>
</g>
<g>
</g>
<g>
</g>
<g>
</g>
<g>
</g>
<g>
</g>
<g>
</g>
<g>
</g>
<g>
</g>
<g>
</g>
<g>
</g>
<g>
</g>
<g>
</g>
</svg>
