<svg xmlns="http://www.w3.org/2000/svg" height="575pt" version="1.1" viewBox="1 -153 575.961 575" width="575pt">
<g id="surface1">
<path d="M 96 216.492188 C 96 224.445312 89.550781 230.890625 81.601562 230.890625 C 73.648438 230.890625 67.199219 224.445312 67.199219 216.492188 C 67.199219 208.539062 73.648438 202.089844 81.601562 202.089844 C 89.550781 202.089844 96 208.539062 96 216.492188 Z M 96 216.492188 " style=" stroke:none;fill-rule:nonzero;fill:rgb(0%,0%,0%);fill-opacity:1;" />
<path d="M 559.957031 167.589844 C 558.15625 165.148438 555.3125 163.703125 552.28125 163.691406 L 493.910156 163.691406 C 497.347656 157.875 499.175781 151.246094 499.199219 144.492188 L 537.601562 144.492188 C 542.902344 144.492188 547.199219 140.191406 547.199219 134.890625 L 547.199219 86.890625 C 547.199219 70.984375 534.304688 58.089844 518.398438 58.089844 L 494.09375 58.089844 L 457.613281 14.296875 C 450.335938 5.546875 439.542969 0.488281 428.160156 0.492188 L 332.160156 0.492188 C 319.320312 0.480469 307.324219 6.898438 300.210938 17.589844 L 272.804688 58.707031 L 217.179688 65.664062 C 202.785156 67.488281 191.996094 79.734375 192 94.246094 L 192 134.890625 C 192 140.195312 196.296875 144.492188 201.597656 144.492188 L 240 144.492188 C 240.039062 151.25 241.878906 157.878906 245.335938 163.691406 L 172.796875 163.691406 L 172.796875 38.890625 C 172.796875 33.589844 168.5 29.292969 163.199219 29.292969 L 57.601562 29.292969 C 54.289062 29.292969 51.214844 30.996094 49.460938 33.804688 L 1.460938 110.601562 C 0.5 112.339844 0 114.292969 0 116.277344 L 0 211.691406 C 0 216.992188 4.296875 221.289062 9.601562 221.289062 L 29.039062 221.289062 C 31.816406 250.320312 57.601562 271.597656 86.628906 268.820312 C 111.816406 266.414062 131.75 246.476562 134.160156 221.289062 L 153.601562 221.289062 L 153.601562 230.890625 C 153.601562 236.191406 157.898438 240.488281 163.199219 240.488281 L 268.800781 240.488281 C 274.101562 240.488281 278.398438 236.191406 278.398438 230.890625 L 278.398438 221.289062 L 384.242188 221.289062 C 387.019531 250.320312 412.800781 271.597656 441.828125 268.820312 C 467.015625 266.414062 486.953125 246.476562 489.359375 221.289062 L 566.402344 221.289062 C 571.703125 221.289062 576 216.992188 576 211.691406 L 576 192.492188 C 575.988281 190.433594 575.316406 188.433594 574.082031 186.789062 Z M 62.917969 48.492188 L 90.046875 48.492188 L 78.527344 106.148438 L 26.6875 106.542969 Z M 40.664062 183.449219 C 38.734375 185.855469 37.015625 188.425781 35.53125 191.128906 C 35.386719 191.394531 35.183594 191.625 35.039062 191.894531 C 33.453125 194.964844 32.164062 198.179688 31.199219 201.496094 C 31.140625 201.6875 31.035156 201.839844 30.988281 202.03125 L 19.199219 202.03125 L 19.199219 182.890625 L 41.03125 182.890625 C 40.886719 183.0625 40.800781 183.273438 40.664062 183.449219 Z M 81.601562 250.089844 C 63.042969 250.089844 48 235.046875 48 216.492188 C 48.027344 215.78125 48.097656 215.078125 48.210938 214.378906 L 48.421875 212.757812 C 50.34375 194.433594 66.757812 181.140625 85.082031 183.0625 C 100.75 184.707031 113.132812 197.089844 114.777344 212.757812 L 114.988281 214.378906 C 115.101562 215.078125 115.171875 215.78125 115.199219 216.492188 C 115.199219 235.046875 100.15625 250.089844 81.601562 250.089844 Z M 153.601562 202.089844 L 132.191406 202.089844 C 132.191406 201.898438 132.039062 201.746094 131.980469 201.554688 C 131.015625 198.234375 129.730469 195.019531 128.140625 191.953125 C 127.996094 191.695312 127.804688 191.472656 127.660156 191.214844 C 126.179688 188.480469 124.457031 185.886719 122.515625 183.457031 C 122.378906 183.285156 122.292969 183.074219 122.148438 182.902344 L 153.597656 182.902344 L 153.597656 202.089844 Z M 153.601562 163.691406 L 19.199219 163.691406 L 19.199219 125.800781 L 85.652344 125.289062 L 86.476562 125.289062 C 91.011719 125.253906 94.902344 122.054688 95.808594 117.609375 L 109.632812 48.492188 L 153.601562 48.492188 Z M 393.601562 19.691406 L 428.160156 19.691406 C 433.859375 19.695312 439.261719 22.226562 442.90625 26.605469 L 469.105469 58.09375 L 393.601562 58.09375 Z M 393.601562 77.292969 L 518.398438 77.292969 C 523.703125 77.292969 528 81.589844 528 86.890625 L 528 125.289062 L 493.929688 125.289062 C 493.183594 124.03125 492.371094 122.8125 491.492188 121.644531 C 491.375 121.5 491.289062 121.324219 491.175781 121.179688 C 490.058594 119.734375 488.84375 118.367188 487.535156 117.09375 C 487.152344 116.71875 486.730469 116.390625 486.324219 116.027344 C 485.367188 115.171875 484.40625 114.335938 483.378906 113.578125 C 482.839844 113.183594 482.273438 112.828125 481.71875 112.464844 C 480.757812 111.832031 479.796875 111.226562 478.75 110.679688 C 478.136719 110.355469 477.511719 110.035156 476.832031 109.71875 C 475.792969 109.230469 474.730469 108.757812 473.644531 108.40625 C 473 108.175781 472.359375 107.933594 471.722656 107.734375 C 470.542969 107.378906 469.324219 107.109375 468.105469 106.859375 C 467.519531 106.742188 466.945312 106.589844 466.347656 106.503906 C 462.660156 105.914062 458.898438 105.914062 455.210938 106.503906 C 454.617188 106.589844 454.050781 106.742188 453.464844 106.859375 C 452.234375 107.109375 451.015625 107.375 449.828125 107.734375 C 449.171875 107.933594 448.539062 108.175781 447.90625 108.40625 C 446.820312 108.796875 445.765625 109.230469 444.71875 109.710938 C 444.085938 110.007812 443.460938 110.324219 442.796875 110.671875 C 441.78125 111.21875 440.792969 111.824219 439.824219 112.457031 C 439.277344 112.828125 438.707031 113.175781 438.179688 113.570312 C 437.148438 114.335938 436.160156 115.15625 435.214844 116.027344 C 434.820312 116.382812 434.398438 116.710938 434.015625 117.082031 C 432.707031 118.359375 431.492188 119.726562 430.375 121.171875 C 430.25 121.335938 430.15625 121.519531 430.03125 121.679688 C 429.164062 122.835938 428.359375 124.039062 427.621094 125.28125 L 393.597656 125.28125 L 393.597656 77.292969 Z M 316.234375 28.246094 C 319.785156 22.917969 325.757812 19.707031 332.160156 19.691406 L 374.398438 19.691406 L 374.398438 58.089844 L 296.332031 58.089844 Z M 245.269531 125.289062 L 211.199219 125.289062 L 211.199219 94.246094 C 211.199219 89.398438 214.804688 85.3125 219.609375 84.710938 L 278.996094 77.292969 L 374.402344 77.292969 L 374.402344 125.292969 L 311.53125 125.292969 C 310.785156 124.03125 309.972656 122.8125 309.09375 121.644531 C 308.976562 121.5 308.890625 121.328125 308.777344 121.183594 C 307.660156 119.734375 306.445312 118.367188 305.136719 117.09375 C 304.753906 116.71875 304.332031 116.390625 303.925781 116.027344 C 302.96875 115.171875 302.007812 114.339844 300.980469 113.578125 C 300.441406 113.183594 299.875 112.828125 299.320312 112.464844 C 298.359375 111.832031 297.398438 111.226562 296.351562 110.679688 C 295.738281 110.355469 295.113281 110.039062 294.433594 109.722656 C 293.394531 109.230469 292.332031 108.761719 291.246094 108.40625 C 290.601562 108.175781 289.960938 107.9375 289.324219 107.734375 C 288.144531 107.378906 286.925781 107.109375 285.707031 106.859375 C 285.121094 106.746094 284.542969 106.589844 283.949219 106.503906 C 280.261719 105.914062 276.5 105.914062 272.8125 106.503906 C 272.21875 106.589844 271.652344 106.746094 271.066406 106.859375 C 269.835938 107.109375 268.617188 107.378906 267.425781 107.734375 C 266.773438 107.9375 266.140625 108.175781 265.507812 108.40625 C 264.421875 108.800781 263.367188 109.230469 262.320312 109.710938 C 261.6875 110.011719 261.0625 110.324219 260.398438 110.671875 C 259.382812 111.21875 258.394531 111.824219 257.425781 112.457031 C 256.875 112.832031 256.308594 113.175781 255.78125 113.570312 C 254.75 114.335938 253.761719 115.15625 252.816406 116.027344 C 252.421875 116.382812 252 116.710938 251.617188 117.085938 C 250.308594 118.359375 249.09375 119.726562 247.976562 121.171875 C 247.851562 121.335938 247.757812 121.519531 247.632812 121.683594 C 246.78125 122.839844 245.992188 124.046875 245.269531 125.289062 Z M 259.199219 211.691406 L 259.199219 221.289062 L 172.800781 221.289062 L 172.800781 182.890625 L 259.199219 182.890625 Z M 259.199219 144.492188 C 259.199219 133.886719 267.796875 125.289062 278.398438 125.289062 C 289.003906 125.289062 297.601562 133.886719 297.601562 144.492188 C 297.601562 155.09375 289.003906 163.691406 278.398438 163.691406 C 267.832031 163.601562 259.289062 155.058594 259.199219 144.492188 Z M 395.867188 183.449219 C 393.933594 185.855469 392.214844 188.425781 390.730469 191.128906 C 390.585938 191.394531 390.382812 191.625 390.238281 191.894531 C 388.652344 194.964844 387.363281 198.179688 386.398438 201.496094 C 386.339844 201.6875 386.234375 201.839844 386.1875 202.03125 L 278.398438 202.03125 L 278.398438 182.890625 L 396.230469 182.890625 C 396.085938 183.0625 396 183.273438 395.867188 183.449219 Z M 311.460938 163.691406 C 314.917969 157.878906 316.761719 151.253906 316.800781 144.492188 L 422.398438 144.492188 C 422.441406 151.25 424.28125 157.878906 427.738281 163.691406 Z M 436.800781 250.089844 C 418.242188 250.089844 403.199219 235.046875 403.199219 216.492188 C 403.226562 215.78125 403.296875 215.078125 403.410156 214.378906 L 403.621094 212.757812 C 405.546875 194.433594 421.960938 181.140625 440.285156 183.0625 C 455.949219 184.707031 468.332031 197.089844 469.976562 212.757812 L 470.1875 214.378906 C 470.300781 215.078125 470.375 215.78125 470.398438 216.492188 C 470.402344 235.046875 455.355469 250.089844 436.800781 250.089844 Z M 460.800781 163.691406 C 450.34375 163.542969 441.992188 154.945312 442.140625 144.492188 C 442.292969 134.035156 450.886719 125.683594 461.34375 125.832031 C 471.585938 125.980469 479.855469 134.246094 480 144.492188 C 480 155.09375 471.402344 163.691406 460.800781 163.691406 Z M 556.800781 202.089844 L 487.394531 202.089844 C 487.34375 201.898438 487.238281 201.746094 487.183594 201.554688 C 486.21875 198.234375 484.933594 195.019531 483.339844 191.953125 C 483.199219 191.695312 483.003906 191.472656 482.863281 191.214844 C 481.378906 188.480469 479.660156 185.886719 477.714844 183.457031 C 477.582031 183.285156 477.496094 183.074219 477.351562 182.902344 L 547.363281 182.902344 L 556.800781 195.648438 Z M 556.800781 202.089844 " style=" stroke:none;fill-rule:nonzero;fill:rgb(0%,0%,0%);fill-opacity:1;" />
<path d="M 451.199219 216.492188 C 451.199219 224.445312 444.753906 230.890625 436.800781 230.890625 C 428.847656 230.890625 422.398438 224.445312 422.398438 216.492188 C 422.398438 208.539062 428.847656 202.089844 436.800781 202.089844 C 444.753906 202.089844 451.199219 208.539062 451.199219 216.492188 Z M 451.199219 216.492188 " style=" stroke:none;fill-rule:nonzero;fill:rgb(0%,0%,0%);fill-opacity:1;" />
</g>
</svg>